<svg width="24" height="24" viewBox="0 0 24 24" fill="none" xmlns="http://www.w3.org/2000/svg">
<g clip-path="url(#clip0_258_1228)">
<path d="M12 18.5C13.7239 18.5 15.3772 17.8152 16.5962 16.5962C17.8152 15.3772 18.5 13.7239 18.5 12C18.5 10.2761 17.8152 8.62279 16.5962 7.40381C15.3772 6.18482 13.7239 5.5 12 5.5C10.2761 5.5 8.62279 6.18482 7.40381 7.40381C6.18482 8.62279 5.5 10.2761 5.5 12C5.5 13.7239 6.18482 15.3772 7.40381 16.5962C8.62279 17.8152 10.2761 18.5 12 18.5Z" stroke="black" stroke-width="1.5" stroke-linecap="round" stroke-linejoin="round"/>
<path d="M11.7755 5.45444C11.6347 5.02444 11.4018 4.64944 11.093 4.34444C10.6959 3.92945 10.167 3.64074 9.58176 3.51944C9.28384 2.26944 8.44967 1.36944 7.26342 1.03444C5.97426 0.664442 4.47926 1.02444 3.54217 1.92944C2.71884 2.72444 2.44801 3.81944 2.76759 4.98444C1.68426 5.22944 1.14801 6.06444 1.08842 6.85944C1.08301 6.91444 1.08301 6.96444 1.08301 7.01444C1.08301 7.95444 1.74926 9.00944 3.23342 9.10944H8.85593C9.62509 9.10944 10.3618 8.84444 10.9251 8.36944C11.808 7.65444 12.133 6.53944 11.7755 5.45444Z" fill="black"/>
<path d="M23.0225 15.6061C22.795 15.0328 22.4188 14.5328 21.92 14.1261C21.2785 13.5728 20.4242 13.1878 19.4788 13.0261C18.9975 11.3594 17.65 10.1594 15.7338 9.71275C13.6513 9.21942 11.2363 9.69942 9.7225 10.9061C8.3925 11.9661 7.955 13.4261 8.47125 14.9794C6.72125 15.3061 5.855 16.4194 5.75875 17.4794C5.75 17.5528 5.75 17.6194 5.75 17.6861C5.75 18.9394 6.82625 20.3461 9.22375 20.4794H18.3063C19.5488 20.4794 20.7388 20.1261 21.6488 19.4928C23.075 18.5394 23.6 17.0528 23.0225 15.6061Z" fill="black"/>
</g>
<defs>
<clipPath id="clip0_258_1228">
<rect width="24" height="24" fill="white"/>
</clipPath>
</defs>
</svg>
