<svg width="34" height="43" viewBox="0 0 34 43" fill="none" xmlns="http://www.w3.org/2000/svg">
<path d="M0 15.8161H33.6527V42.3482H0V15.8161ZM29.2708 19.4986H4.38183V38.6657H29.2708V19.4986ZM16.8263 0C23.8046 0.00731995 29.4593 4.75942 29.468 10.6232V19.4986H4.1847V10.6239C4.19331 4.75942 9.84797 0.00731995 16.8254 0H16.8262H16.8263ZM25.0861 15.8161V10.6239C25.0861 6.79027 21.3881 3.68247 16.8263 3.68247C12.2646 3.68247 8.56653 6.79027 8.56653 10.6239V15.8161L25.0861 15.8161ZM16.8263 22.8496C19.1859 22.8496 21.0986 24.4571 21.0986 26.44C21.0986 28.4229 19.1858 30.0304 16.8263 30.0304C14.4668 30.0304 12.554 28.4229 12.554 26.44C12.5565 24.4579 14.4678 22.8517 16.8261 22.8496H16.8264H16.8263ZM19.0173 35.241H14.6354V28.2076H19.0172L19.0173 35.241Z" fill="#8F8F8F"/>
</svg>
