<svg width="50" height="41" viewBox="0 0 50 41" fill="none" xmlns="http://www.w3.org/2000/svg">
<path d="M32.8444 21.1451C32.8444 24.5276 29.5111 27.261 25.3861 27.261C21.2611 27.261 17.9277 24.5276 17.9277 21.1451C17.9277 17.7626 21.2611 15.0293 25.3861 15.0293C29.5111 15.0293 32.8444 17.7626 32.8444 21.1451Z" stroke="#9E9E9E" stroke-width="1.5" stroke-linecap="round" stroke-linejoin="round"/>
<path d="M25.3854 35.2729C32.7396 35.2729 39.5937 31.7196 44.3646 25.5696C46.2396 23.1608 46.2396 19.1121 44.3646 16.7033C39.5937 10.5533 32.7396 7 25.3854 7C18.0312 7 11.1771 10.5533 6.40625 16.7033C4.53125 19.1121 4.53125 23.1608 6.40625 25.5696C11.1771 31.7196 18.0312 35.2729 25.3854 35.2729Z" stroke="#9E9E9E" stroke-width="2" stroke-linecap="round" stroke-linejoin="round"/>
</svg>
